<?xml version="1.0" encoding="utf-8"?>
<!-- Generator: Adobe Illustrator 25.0.1, SVG Export Plug-In . SVG Version: 6.00 Build 0)  -->
<svg version="1.0" id="Layer_1" xmlns="http://www.w3.org/2000/svg" xmlns:xlink="http://www.w3.org/1999/xlink" x="0px" y="0px"
	 viewBox="0 0 924.1 669.7" style="enable-background:new 0 0 924.1 669.7;" xml:space="preserve">
<style type="text/css">
	.st0{fill-rule:evenodd;clip-rule:evenodd;fill:#ED4C2F;}
</style>
<path class="st0" d="M266,405.7c-19.6,3.8-44.9-2.8-58.6-17.5c-6.2-6.6,3.8-16.7,10-10c9.2,9.9,25.7,14.6,39.1,14.3
	c17.1-0.4,32.3-15.9,22.6-33.3c-13.5-24.1-46.6-17.3-63.7-36.3c-13.8-15.3-7.2-39.3,8.9-49.9c16.9-11.1,46-10.7,59.9,5.2
	c6,6.8-4,16.9-10,10c-11.2-12.9-37.7-11.1-47.8,2.1c-14.4,18.9,7.1,29.1,22.2,33.6c20.7,6.3,43.6,17.7,47.4,41.4
	C299.1,384.4,284.3,402.1,266,405.7L266,405.7z M135.1,226.7h233.4c15.6,0,28.2,12.7,28.2,28.2v163.4c0,15.6-12.7,28.2-28.2,28.2
	H128.3c-15.6,0-28.2-12.6-28.3-28.2V216.5c0-7.3,6.1-12.4,13.3-13.3l215.2-27.5c7.4,0,13.3,6,13.3,13.3v22.8H121.6
	C121.6,221.5,124.5,226.7,135.1,226.7L135.1,226.7z"/>
<path class="st0" d="M492.6,188.5c-9.3-10.2-28.7-10.5-40-3.4c-10.8,6.8-15.2,22.3-6,32.1c11.4,12.1,33.5,7.8,42.5,23.3
	c6.5,11.2-3.7,21.2-15.1,21.4c-9,0.2-20-2.8-26.1-9.2c-4.1-4.3-10.8,2.1-6.7,6.4c9.1,9.5,26,13.7,39.1,11.2
	c12.2-2.3,22.1-13.7,20.1-25.9c-2.5-15.2-17.8-22.6-31.6-26.6c-10-2.9-24.4-9.5-14.8-21.6c6.8-8.5,24.4-9.6,31.9-1.4
	C489.9,199.3,496.6,192.9,492.6,188.5L492.6,188.5z M559,234.7v31.9c0,6-9.5,6-9.5,0v-31.2c-0.3-3.8-2.5-7.2-5.8-9.1
	c-6.7-2.9-19-1.6-26.2,7.6v32.7c0,6-9.5,6-9.5,0v-81.8c0-6,9.5-6,9.5,0v36.8c11.6-7.7,26.3-6.9,33.3-2.1
	C556.1,222.6,559.2,228.5,559,234.7z M717.4,238.9c0.1-0.4,0.2-0.7,0.3-1c2.3-7.5,10-11.8,17.8-12c9-0.2,14,5.8,15.6,13H717.4z
	 M761,243.5c-0.2-12.5-6.8-23.9-20.5-26.4c-11.8-2.2-25.6,3.9-30.6,14.6c-5.2,11.1-3,26.4,7.3,34.2c11.1,8.4,28.5,5.8,39.9-0.4
	c5.3-2.9,0.5-10.8-4.8-7.9c-7.2,3.9-16.7,5.9-24.8,3.2c-6.1-2-9.5-7-10.5-12.7h39.3C758.9,248.1,761,246.1,761,243.5L761,243.5z
	 M780.3,238.9c0.1-0.3,0.2-0.7,0.3-1c2.3-7.5,10-11.8,17.8-12c9-0.2,14,5.8,15.6,13H780.3z M824,243.4c-0.2-12.5-6.8-23.9-20.5-26.4
	c-11.8-2.2-25.6,3.9-30.6,14.6c-5.2,11.1-3,26.4,7.3,34.2c11.1,8.4,28.5,5.8,39.9-0.4c5.3-2.9,0.5-10.8-4.8-7.9
	c-7.2,4-16.7,5.9-24.8,3.2c-6.1-2-9.5-7-10.5-12.7h39.3C821.8,248,823.9,246,824,243.4L824,243.4z M598.2,226.6
	c-9.9,0-18,7.8-18,17.4s8,17.4,18,17.4s17.9-7.8,17.9-17.4S608,226.6,598.2,226.6z M598.2,271.2c-15.5,0-28.1-12.2-28.1-27.3
	s12.6-27.3,28.1-27.3s28.1,12.2,28.1,27.3S613.7,271.2,598.2,271.2z M667.9,261.4c-9.9,0-17.9-7.8-17.9-17.4
	c0.1-8.7,6.5-15.9,15.1-17.2h0.2c0.9-0.1,1.8-0.2,2.7-0.2c7,0,13.4,4,16.4,10.4c0,0,0,0,0,0.1c1,2.2,1.5,4.5,1.5,6.9
	C685.8,253.6,677.8,261.4,667.9,261.4L667.9,261.4z M667.9,216.7c-8,0-15.6,3.3-21,9.1v-6.5c0-5.9-9.5-5.9-9.5,0v77.1
	c0,5.9,9.5,5.9,9.5,0v-34.3c5.4,5.9,13,9.2,21,9.1c15.5,0,28.1-12.2,28.1-27.3S683.4,216.7,667.9,216.7L667.9,216.7z"/>
<path class="st0" d="M620.4,357.4c18,0,32.7,14.6,32.7,32.7s-14.6,32.7-32.7,32.7s-32.7-14.6-32.7-32.7S602.4,357.4,620.4,357.4
	L620.4,357.4z M657,334.6h22.1v110.9H657V433c-23.7,20.2-59.4,17.3-79.6-6.4c-20.2-23.7-17.3-59.4,6.4-79.6
	c21.1-17.9,52-17.9,73.1,0V334.6z M465,375.3v-59.9h34c19.1,0,34.6,13.4,34.6,30s-15.5,30-34.6,30L465,375.3z M439.9,446.5H465v-46
	h34c35.2,0,63.7-24.7,63.7-55.1s-28.6-55.1-63.7-55.1h-59.2L439.9,446.5L439.9,446.5z M739.1,494h-30l32.1-60.7l-52.8-99.7H721
	l36.5,68.9l36.5-68.9h30L739.1,494z"/>
</svg>
