<svg xmlns="http://www.w3.org/2000/svg" viewBox="0 0 64.65 14.9"><defs><style>.cls-1{fill:#00afd9;}.cls-1,.cls-2,.cls-3{fill-rule:evenodd;}.cls-2{fill:#fff;}</style></defs><g id="Layer_2" data-name="Layer 2"><g id="Layer_1-2" data-name="Layer 1"><path class="cls-1" d="M7.45,0A7.45,7.45,0,1,1,0,7.45,7.45,7.45,0,0,1,7.45,0Z"/><path class="cls-2" d="M3.16,9.12a2.24,2.24,0,0,0,2.26,2.23,39.27,39.27,0,0,0,4.06,0,2.38,2.38,0,0,0,2.27-2.23c.05-.62.07-1.25.06-1.87h0A2,2,0,0,0,10,5.5H5.17a.31.31,0,0,1-.3-.31h0a.3.3,0,0,1,.3-.3H10c0-1.13-1.29-1.35-1.89-1.38H7.75c-.78,0-1.55,0-2.33.07A2.26,2.26,0,0,0,3.16,5.8a20.45,20.45,0,0,0,0,3.32Zm7.17-.64v.41a.28.28,0,0,1-.28.27h0a.27.27,0,0,1-.27-.27V8.48a.41.41,0,0,1-.2-.36.46.46,0,0,1,.47-.45.47.47,0,0,1,.48.45.43.43,0,0,1-.2.36Z"/><path class="cls-3" d="M52.5,6.78V8.12a2.61,2.61,0,0,1-2.05,1.13c-1.59.22-1.59-.77-1.47-1s.49-.6,1.8-.82,1.73-.62,1.73-.62Zm1.87-1.3v5.25H52.65V9.88a3.67,3.67,0,0,1-2.45,1c-3.47.1-4.78-3.73-.6-4.88,1-.27,2-.19,2.46-.45a.5.5,0,0,0,.21-.8c-.87-1.11-2.91-.66-3.46.9l-1.72-.42a3.6,3.6,0,0,1,3.5-2.68c1.79-.17,3.79.8,3.79,2.88Zm-32.73-1a2.29,2.29,0,1,0,2.28,2.29,2.29,2.29,0,0,0-2.28-2.29ZM26.1,2.85H23.92v.87a4,4,0,0,0-2.61-1,4.08,4.08,0,0,0-4,4.13,4.08,4.08,0,0,0,4,4.13,4,4,0,0,0,2.61-1v.79A2.12,2.12,0,0,1,21.8,13a3,3,0,0,1-2.52-1l-1.42,1.27a4.84,4.84,0,0,0,4,1.64,4.09,4.09,0,0,0,4.27-4.32V2.85Zm38.55-.13H62.31L60,7.79,57.32,2.71H55L58.83,10l-2,4.19h2.35L64.65,2.72ZM41.77,4.53a2.29,2.29,0,1,1-2.28,2.29,2.29,2.29,0,0,1,2.28-2.29ZM37.31,2.85h2.18v.87a4,4,0,0,1,2.61-1,4.08,4.08,0,0,1,4,4.13,4.08,4.08,0,0,1-4,4.13,4,4,0,0,1-2.61-1v4.12H37.31V2.85ZM31.48,4.47A2.44,2.44,0,0,1,34,6.87a2.48,2.48,0,0,1-5,0,2.44,2.44,0,0,1,2.48-2.4Zm0-1.88a4.36,4.36,0,0,1,4.43,4.28,4.43,4.43,0,0,1-8.86,0,4.36,4.36,0,0,1,4.43-4.28Z"/></g></g></svg>