<svg id="Layer_1" data-name="Layer 1" xmlns="http://www.w3.org/2000/svg" viewBox="0 0 280 91.81"><defs><style>.cls-1{fill:#4c3494;}</style></defs><path class="cls-1" d="M52.44,156.69c-25.34.23-45.56-19.8-45.59-45.8s20.33-46,45.6-46C77.31,65,97.89,84.72,97.81,111,97.73,136.83,77.56,156.87,52.44,156.69ZM23.89,111.33c.15,1.55.32,3.57.56,5.58a22.79,22.79,0,0,0,.56,2.68c3,12.1,12.73,21.06,25,21.94,9.72.7,17.77-2.67,23.86-10.26C82.1,121.05,83,105.65,76.37,94A27.49,27.49,0,0,0,37.2,84.52C27.88,90.73,24.19,100,23.89,111.33Z" transform="translate(-6.85 -64.93)"/><path class="cls-1" d="M241.39,65c24.62-.37,45.5,19.24,45.46,45.88-.05,26.26-20.21,45.25-44.2,45.83-26.49.63-46.84-20-46.77-46S216.23,64.69,241.39,65ZM270,110.9c-.42-2.85-.65-5.75-1.3-8.55-3-12.51-12.73-21.1-24.32-22.17-10.05-.92-18.64,2.31-24.67,10.39-8.46,11.35-9.14,23.8-2.79,36.3,8.46,16.65,31,19.93,44.07,6.62C267.12,127.26,269.66,119.54,270,110.9Z" transform="translate(-6.85 -64.93)"/><path class="cls-1" d="M101.48,67.36h3.18c10.47,0,20.94,0,31.42,0,1.4,0,2,.28,1.91,1.83-.12,3.71-.1,7.42,0,11.13,0,1.49-.3,2.1-1.93,2-2.21-.15-4.43,0-6.94,0,7,16.52,13.85,32.8,20.81,49.28,6.73-16.48,13.37-32.76,20.1-49.25h-8.62V67.46h28.86c-.31,3.53.61,7-.89,10.49-7.27,16.86-14.42,33.77-21.62,50.66-3.76,8.82-7.56,17.62-11.25,26.47a2.38,2.38,0,0,1-2.59,1.65c-5.65.19-10.31-1.78-13.54-6.43a39.28,39.28,0,0,1-3.45-6.93Q124,113.7,111.21,84a2.47,2.47,0,0,0-2.83-1.79c-1.87.15-3.76,0-5.64.06-.89,0-1.29-.22-1.28-1.19C101.5,76.61,101.48,72.14,101.48,67.36Z" transform="translate(-6.85 -64.93)"/></svg>